<?xml version="1.0" encoding="UTF-8" standalone="no"?>
<!-- Created with Inkscape (http://www.inkscape.org/) -->

<svg
   xmlns:dc="http://purl.org/dc/elements/1.1/"
   xmlns:cc="http://creativecommons.org/ns#"
   xmlns:rdf="http://www.w3.org/1999/02/22-rdf-syntax-ns#"
   xmlns:svg="http://www.w3.org/2000/svg"
   xmlns="http://www.w3.org/2000/svg"
   xmlns:sodipodi="http://sodipodi.sourceforge.net/DTD/sodipodi-0.dtd"
   xmlns:inkscape="http://www.inkscape.org/namespaces/inkscape"
   width="800px"
   height="600px"
   id="svg2985"
   version="1.1"
   inkscape:version="0.48.3.1 r9886"
   sodipodi:docname="New document 2">
  <defs
     id="defs2987" />
  <sodipodi:namedview
     id="base"
     pagecolor="#ffffff"
     bordercolor="#666666"
     borderopacity="1.0"
     inkscape:pageopacity="0.0"
     inkscape:pageshadow="2"
     inkscape:zoom="0.6"
     inkscape:cx="372.78226"
     inkscape:cy="284.13858"
     inkscape:current-layer="layer1"
     inkscape:document-units="px"
     showgrid="false"
     inkscape:window-width="1366"
     inkscape:window-height="680"
     inkscape:window-x="0"
     inkscape:window-y="31"
     inkscape:window-maximized="1" />
  <metadata
     id="metadata2990">
    <rdf:RDF>
      <cc:Work
         rdf:about="">
        <dc:format>image/svg+xml</dc:format>
        <dc:type
           rdf:resource="http://purl.org/dc/dcmitype/StillImage" />
        <dc:title></dc:title>
      </cc:Work>
    </rdf:RDF>
  </metadata>
  <g
     id="layer1"
     inkscape:label="Layer 1"
     inkscape:groupmode="layer">
    <g
       id="g3767"
       transform="matrix(0.5,0,0,0.5,114.16666,6.03158)">
      <path
         d="m 238.33333,97.5 c 0,11.50593 -9.3274,20.83333 -20.83333,20.83333 -11.50593,0 -20.83333,-9.3274 -20.83333,-20.83333 0,-11.505933 9.3274,-20.833334 20.83333,-20.833334 11.50593,0 20.83333,9.327401 20.83333,20.833334 z"
         sodipodi:ry="20.833334"
         sodipodi:rx="20.833334"
         sodipodi:cy="97.5"
         sodipodi:cx="217.5"
         id="path2993"
         style="fill:none;stroke:#ff0000;stroke-width:10;stroke-miterlimit:4;stroke-dasharray:none"
         sodipodi:type="arc" />
      <text
         sodipodi:linespacing="125%"
         id="text3763"
         y="146.66667"
         x="243.33333"
         style="font-size:28px;font-style:normal;font-weight:normal;line-height:125%;letter-spacing:0px;word-spacing:0px;fill:#000000;fill-opacity:1;stroke:none;font-family:Sans"
         xml:space="preserve"><tspan
           y="146.66667"
           x="243.33333"
           id="tspan3765"
           sodipodi:role="line">Nerleeni</tspan></text>
    </g>
    <g
       id="g3772"
       transform="matrix(0.5,0,0,0.5,249.16666,-7.30175)">
      <path
         sodipodi:type="arc"
         style="fill:none;stroke:#ff0000;stroke-width:10;stroke-miterlimit:4;stroke-dasharray:none"
         id="path3774"
         sodipodi:cx="217.5"
         sodipodi:cy="97.5"
         sodipodi:rx="20.833334"
         sodipodi:ry="20.833334"
         d="m 238.33333,97.5 c 0,11.50593 -9.3274,20.83333 -20.83333,20.83333 -11.50593,0 -20.83333,-9.3274 -20.83333,-20.83333 0,-11.505933 9.3274,-20.833334 20.83333,-20.833334 11.50593,0 20.83333,9.327401 20.83333,20.833334 z" />
      <text
         xml:space="preserve"
         style="font-size:28px;font-style:normal;font-weight:normal;line-height:125%;letter-spacing:0px;word-spacing:0px;fill:#000000;fill-opacity:1;stroke:none;font-family:Sans"
         x="243.33333"
         y="146.66667"
         id="text3776"
         sodipodi:linespacing="125%"><tspan
           sodipodi:role="line"
           id="tspan3778"
           x="243.33333"
           y="146.66667">Rappi</tspan></text>
    </g>
    <g
       transform="matrix(0.5,0,0,0.5,408.33332,17.69825)"
       id="g3780">
      <path
         d="m 238.33333,97.5 c 0,11.50593 -9.3274,20.83333 -20.83333,20.83333 -11.50593,0 -20.83333,-9.3274 -20.83333,-20.83333 0,-11.505933 9.3274,-20.833334 20.83333,-20.833334 11.50593,0 20.83333,9.327401 20.83333,20.833334 z"
         sodipodi:ry="20.833334"
         sodipodi:rx="20.833334"
         sodipodi:cy="97.5"
         sodipodi:cx="217.5"
         id="path3782"
         style="fill:none;stroke:#ff0000;stroke-width:10;stroke-miterlimit:4;stroke-dasharray:none"
         sodipodi:type="arc" />
      <text
         sodipodi:linespacing="125%"
         id="text3784"
         y="146.66667"
         x="243.33333"
         style="font-size:28px;font-style:normal;font-weight:normal;line-height:125%;letter-spacing:0px;word-spacing:0px;fill:#000000;fill-opacity:1;stroke:none;font-family:Sans"
         xml:space="preserve"><tspan
           y="146.66667"
           x="243.33333"
           id="tspan3786"
           sodipodi:role="line">Tif</tspan></text>
    </g>
    <g
       id="g3788"
       transform="matrix(0.5,0,0,0.5,327.49999,38.53158)">
      <path
         sodipodi:type="arc"
         style="fill:none;stroke:#ff0000;stroke-width:10;stroke-miterlimit:4;stroke-dasharray:none"
         id="path3790"
         sodipodi:cx="217.5"
         sodipodi:cy="97.5"
         sodipodi:rx="20.833334"
         sodipodi:ry="20.833334"
         d="m 238.33333,97.5 c 0,11.50593 -9.3274,20.83333 -20.83333,20.83333 -11.50593,0 -20.83333,-9.3274 -20.83333,-20.83333 0,-11.505933 9.3274,-20.833334 20.83333,-20.833334 11.50593,0 20.83333,9.327401 20.83333,20.833334 z" />
      <text
         xml:space="preserve"
         style="font-size:28px;font-style:normal;font-weight:normal;line-height:125%;letter-spacing:0px;word-spacing:0px;fill:#000000;fill-opacity:1;stroke:none;font-family:Sans"
         x="243.33333"
         y="146.66667"
         id="text3792"
         sodipodi:linespacing="125%"><tspan
           sodipodi:role="line"
           id="tspan3794"
           x="243.33333"
           y="146.66667">Logree</tspan></text>
    </g>
    <g
       transform="matrix(0.5,0,0,0.5,124.99999,75.19825)"
       id="g3796">
      <path
         d="m 238.33333,97.5 c 0,11.50593 -9.3274,20.83333 -20.83333,20.83333 -11.50593,0 -20.83333,-9.3274 -20.83333,-20.83333 0,-11.505933 9.3274,-20.833334 20.83333,-20.833334 11.50593,0 20.83333,9.327401 20.83333,20.833334 z"
         sodipodi:ry="20.833334"
         sodipodi:rx="20.833334"
         sodipodi:cy="97.5"
         sodipodi:cx="217.5"
         id="path3798"
         style="fill:none;stroke:#ff0000;stroke-width:10;stroke-miterlimit:4;stroke-dasharray:none"
         sodipodi:type="arc" />
      <text
         sodipodi:linespacing="125%"
         id="text3800"
         y="146.66667"
         x="188.33333"
         style="font-size:28px;font-style:normal;font-weight:normal;line-height:125%;letter-spacing:0px;word-spacing:0px;fill:#000000;fill-opacity:1;stroke:none;font-family:Sans"
         xml:space="preserve"><tspan
           y="146.66667"
           x="188.33333"
           id="tspan3802"
           sodipodi:role="line">Pukkeera</tspan></text>
    </g>
    <g
       transform="matrix(0.5,0,0,0.5,225.83333,95.19825)"
       id="g3804">
      <path
         d="m 238.33333,97.5 c 0,11.50593 -9.3274,20.83333 -20.83333,20.83333 -11.50593,0 -20.83333,-9.3274 -20.83333,-20.83333 0,-11.505933 9.3274,-20.833334 20.83333,-20.833334 11.50593,0 20.83333,9.327401 20.83333,20.833334 z"
         sodipodi:ry="20.833334"
         sodipodi:rx="20.833334"
         sodipodi:cy="97.5"
         sodipodi:cx="217.5"
         id="path3806"
         style="fill:none;stroke:#ff0000;stroke-width:10;stroke-miterlimit:4;stroke-dasharray:none"
         sodipodi:type="arc" />
      <text
         sodipodi:linespacing="125%"
         id="text3808"
         y="146.66667"
         x="243.33333"
         style="font-size:28px;font-style:normal;font-weight:normal;line-height:125%;letter-spacing:0px;word-spacing:0px;fill:#000000;fill-opacity:1;stroke:none;font-family:Sans"
         xml:space="preserve"><tspan
           y="146.66667"
           x="243.33333"
           id="tspan3810"
           sodipodi:role="line">Zagueel</tspan></text>
    </g>
    <g
       id="g3812"
       transform="matrix(0.5,0,0,0.5,413.33332,150.19825)">
      <path
         sodipodi:type="arc"
         style="fill:none;stroke:#ff0000;stroke-width:10;stroke-miterlimit:4;stroke-dasharray:none"
         id="path3814"
         sodipodi:cx="217.5"
         sodipodi:cy="97.5"
         sodipodi:rx="20.833334"
         sodipodi:ry="20.833334"
         d="m 238.33333,97.5 c 0,11.50593 -9.3274,20.83333 -20.83333,20.83333 -11.50593,0 -20.83333,-9.3274 -20.83333,-20.83333 0,-11.505933 9.3274,-20.833334 20.83333,-20.833334 11.50593,0 20.83333,9.327401 20.83333,20.833334 z" />
      <text
         xml:space="preserve"
         style="font-size:28px;font-style:normal;font-weight:normal;line-height:125%;letter-spacing:0px;word-spacing:0px;fill:#000000;fill-opacity:1;stroke:none;font-family:Sans"
         x="243.33333"
         y="146.66667"
         id="text3816"
         sodipodi:linespacing="125%"><tspan
           sodipodi:role="line"
           id="tspan3818"
           x="243.33333"
           y="146.66667">Menfarb</tspan></text>
    </g>
    <g
       transform="matrix(0.5,0,0,0.5,512.49998,121.03158)"
       id="g3820">
      <path
         d="m 238.33333,97.5 c 0,11.50593 -9.3274,20.83333 -20.83333,20.83333 -11.50593,0 -20.83333,-9.3274 -20.83333,-20.83333 0,-11.505933 9.3274,-20.833334 20.83333,-20.833334 11.50593,0 20.83333,9.327401 20.83333,20.833334 z"
         sodipodi:ry="20.833334"
         sodipodi:rx="20.833334"
         sodipodi:cy="97.5"
         sodipodi:cx="217.5"
         id="path3822"
         style="fill:none;stroke:#ff0000;stroke-width:10;stroke-miterlimit:4;stroke-dasharray:none"
         sodipodi:type="arc" />
      <text
         sodipodi:linespacing="125%"
         id="text3824"
         y="146.66667"
         x="243.33333"
         style="font-size:28px;font-style:normal;font-weight:normal;line-height:125%;letter-spacing:0px;word-spacing:0px;fill:#000000;fill-opacity:1;stroke:none;font-family:Sans"
         xml:space="preserve"><tspan
           y="146.66667"
           x="243.33333"
           id="tspan3826"
           sodipodi:role="line">Earth</tspan></text>
    </g>
    <g
       id="g3828"
       transform="matrix(0.5,0,0,0.5,563.33332,50.19825)">
      <path
         sodipodi:type="arc"
         style="fill:none;stroke:#ff0000;stroke-width:10;stroke-miterlimit:4;stroke-dasharray:none"
         id="path3830"
         sodipodi:cx="217.5"
         sodipodi:cy="97.5"
         sodipodi:rx="20.833334"
         sodipodi:ry="20.833334"
         d="m 238.33333,97.5 c 0,11.50593 -9.3274,20.83333 -20.83333,20.83333 -11.50593,0 -20.83333,-9.3274 -20.83333,-20.83333 0,-11.505933 9.3274,-20.833334 20.83333,-20.833334 11.50593,0 20.83333,9.327401 20.83333,20.833334 z" />
      <text
         xml:space="preserve"
         style="font-size:28px;font-style:normal;font-weight:normal;line-height:125%;letter-spacing:0px;word-spacing:0px;fill:#000000;fill-opacity:1;stroke:none;font-family:Sans"
         x="243.33333"
         y="146.66667"
         id="text3832"
         sodipodi:linespacing="125%"><tspan
           sodipodi:role="line"
           id="tspan3834"
           x="243.33333"
           y="146.66667">Tetamus II</tspan></text>
    </g>
    <g
       transform="matrix(0.5,0,0,0.5,572.49998,183.53159)"
       id="g3836">
      <path
         d="m 238.33333,97.5 c 0,11.50593 -9.3274,20.83333 -20.83333,20.83333 -11.50593,0 -20.83333,-9.3274 -20.83333,-20.83333 0,-11.505933 9.3274,-20.833334 20.83333,-20.833334 11.50593,0 20.83333,9.327401 20.83333,20.833334 z"
         sodipodi:ry="20.833334"
         sodipodi:rx="20.833334"
         sodipodi:cy="97.5"
         sodipodi:cx="217.5"
         id="path3838"
         style="fill:none;stroke:#ff0000;stroke-width:10;stroke-miterlimit:4;stroke-dasharray:none"
         sodipodi:type="arc" />
      <text
         sodipodi:linespacing="125%"
         id="text3840"
         y="146.66667"
         x="243.33333"
         style="font-size:28px;font-style:normal;font-weight:normal;line-height:125%;letter-spacing:0px;word-spacing:0px;fill:#000000;fill-opacity:1;stroke:none;font-family:Sans"
         xml:space="preserve"><tspan
           y="146.66667"
           x="243.33333"
           id="tspan3842"
           sodipodi:role="line">Gurin Fa</tspan></text>
    </g>
    <g
       id="g3844"
       transform="matrix(0.5,0,0,0.5,109.99999,163.53159)">
      <path
         sodipodi:type="arc"
         style="fill:none;stroke:#ff0000;stroke-width:10;stroke-miterlimit:4;stroke-dasharray:none"
         id="path3846"
         sodipodi:cx="217.5"
         sodipodi:cy="97.5"
         sodipodi:rx="20.833334"
         sodipodi:ry="20.833334"
         d="m 238.33333,97.5 c 0,11.50593 -9.3274,20.83333 -20.83333,20.83333 -11.50593,0 -20.83333,-9.3274 -20.83333,-20.83333 0,-11.505933 9.3274,-20.833334 20.83333,-20.833334 11.50593,0 20.83333,9.327401 20.83333,20.833334 z" />
      <text
         xml:space="preserve"
         style="font-size:28px;font-style:normal;font-weight:normal;line-height:125%;letter-spacing:0px;word-spacing:0px;fill:#000000;fill-opacity:1;stroke:none;font-family:Sans"
         x="243.33333"
         y="146.66667"
         id="text3848"
         sodipodi:linespacing="125%"><tspan
           sodipodi:role="line"
           id="tspan3850"
           x="243.33333"
           y="146.66667">Chekon</tspan></text>
    </g>
    <g
       transform="matrix(0.5,0,0,0.5,5.83332,56.03159)"
       id="g3860">
      <path
         d="m 238.33333,97.5 c 0,11.50593 -9.3274,20.83333 -20.83333,20.83333 -11.50593,0 -20.83333,-9.3274 -20.83333,-20.83333 0,-11.505933 9.3274,-20.833334 20.83333,-20.833334 11.50593,0 20.83333,9.327401 20.83333,20.833334 z"
         sodipodi:ry="20.833334"
         sodipodi:rx="20.833334"
         sodipodi:cy="97.5"
         sodipodi:cx="217.5"
         id="path3862"
         style="fill:none;stroke:#ff0000;stroke-width:10;stroke-miterlimit:4;stroke-dasharray:none"
         sodipodi:type="arc" />
      <text
         sodipodi:linespacing="125%"
         id="text3864"
         y="146.66667"
         x="243.33333"
         style="font-size:28px;font-style:normal;font-weight:normal;line-height:125%;letter-spacing:0px;word-spacing:0px;fill:#000000;fill-opacity:1;stroke:none;font-family:Sans"
         xml:space="preserve"><tspan
           y="146.66667"
           x="243.33333"
           id="tspan3866"
           sodipodi:role="line">Mordarl</tspan></text>
    </g>
    <g
       id="g3868"
       transform="matrix(0.5,0,0,0.5,-40.833347,156.03159)">
      <path
         sodipodi:type="arc"
         style="fill:none;stroke:#ff0000;stroke-width:10;stroke-miterlimit:4;stroke-dasharray:none"
         id="path3870"
         sodipodi:cx="217.5"
         sodipodi:cy="97.5"
         sodipodi:rx="20.833334"
         sodipodi:ry="20.833334"
         d="m 238.33333,97.5 c 0,11.50593 -9.3274,20.83333 -20.83333,20.83333 -11.50593,0 -20.83333,-9.3274 -20.83333,-20.83333 0,-11.505933 9.3274,-20.833334 20.83333,-20.833334 11.50593,0 20.83333,9.327401 20.83333,20.833334 z" />
      <text
         xml:space="preserve"
         style="font-size:28px;font-style:normal;font-weight:normal;line-height:125%;letter-spacing:0px;word-spacing:0px;fill:#000000;fill-opacity:1;stroke:none;font-family:Sans"
         x="243.33333"
         y="146.66667"
         id="text3872"
         sodipodi:linespacing="125%"><tspan
           sodipodi:role="line"
           id="tspan3874"
           x="243.33333"
           y="146.66667">Mapate</tspan></text>
    </g>
    <g
       transform="matrix(0.5,0,0,0.5,10.83332,226.03159)"
       id="g3876">
      <path
         d="m 238.33333,97.5 c 0,11.50593 -9.3274,20.83333 -20.83333,20.83333 -11.50593,0 -20.83333,-9.3274 -20.83333,-20.83333 0,-11.505933 9.3274,-20.833334 20.83333,-20.833334 11.50593,0 20.83333,9.327401 20.83333,20.833334 z"
         sodipodi:ry="20.833334"
         sodipodi:rx="20.833334"
         sodipodi:cy="97.5"
         sodipodi:cx="217.5"
         id="path3878"
         style="fill:none;stroke:#ff0000;stroke-width:10;stroke-miterlimit:4;stroke-dasharray:none"
         sodipodi:type="arc" />
      <text
         sodipodi:linespacing="125%"
         id="text3880"
         y="146.66667"
         x="243.33333"
         style="font-size:28px;font-style:normal;font-weight:normal;line-height:125%;letter-spacing:0px;word-spacing:0px;fill:#000000;fill-opacity:1;stroke:none;font-family:Sans"
         xml:space="preserve"><tspan
           y="146.66667"
           x="243.33333"
           id="tspan3882"
           sodipodi:role="line">Winow</tspan></text>
    </g>
    <g
       id="g3884"
       transform="matrix(0.5,0,0,0.5,115.83332,287.69826)">
      <path
         sodipodi:type="arc"
         style="fill:none;stroke:#ff0000;stroke-width:10;stroke-miterlimit:4;stroke-dasharray:none"
         id="path3886"
         sodipodi:cx="217.5"
         sodipodi:cy="97.5"
         sodipodi:rx="20.833334"
         sodipodi:ry="20.833334"
         d="m 238.33333,97.5 c 0,11.50593 -9.3274,20.83333 -20.83333,20.83333 -11.50593,0 -20.83333,-9.3274 -20.83333,-20.83333 0,-11.505933 9.3274,-20.833334 20.83333,-20.833334 11.50593,0 20.83333,9.327401 20.83333,20.833334 z" />
      <text
         xml:space="preserve"
         style="font-size:28px;font-style:normal;font-weight:normal;line-height:125%;letter-spacing:0px;word-spacing:0px;fill:#000000;fill-opacity:1;stroke:none;font-family:Sans"
         x="243.33333"
         y="146.66667"
         id="text3888"
         sodipodi:linespacing="125%"><tspan
           sodipodi:role="line"
           id="tspan3890"
           x="243.33333"
           y="146.66667">Renbuda</tspan></text>
    </g>
    <g
       transform="matrix(0.5,0,0,0.5,210.83332,227.69826)"
       id="g3892">
      <path
         d="m 238.33333,97.5 c 0,11.50593 -9.3274,20.83333 -20.83333,20.83333 -11.50593,0 -20.83333,-9.3274 -20.83333,-20.83333 0,-11.505933 9.3274,-20.833334 20.83333,-20.833334 11.50593,0 20.83333,9.327401 20.83333,20.833334 z"
         sodipodi:ry="20.833334"
         sodipodi:rx="20.833334"
         sodipodi:cy="97.5"
         sodipodi:cx="217.5"
         id="path3894"
         style="fill:none;stroke:#ff0000;stroke-width:10;stroke-miterlimit:4;stroke-dasharray:none"
         sodipodi:type="arc" />
      <text
         sodipodi:linespacing="125%"
         id="text3896"
         y="146.66667"
         x="243.33333"
         style="font-size:28px;font-style:normal;font-weight:normal;line-height:125%;letter-spacing:0px;word-spacing:0px;fill:#000000;fill-opacity:1;stroke:none;font-family:Sans"
         xml:space="preserve"><tspan
           y="146.66667"
           x="243.33333"
           id="tspan3898"
           sodipodi:role="line">Igran</tspan></text>
    </g>
    <g
       id="g3900"
       transform="matrix(0.5,0,0,0.5,415.83332,246.03159)">
      <path
         sodipodi:type="arc"
         style="fill:none;stroke:#ff0000;stroke-width:10;stroke-miterlimit:4;stroke-dasharray:none"
         id="path3902"
         sodipodi:cx="217.5"
         sodipodi:cy="97.5"
         sodipodi:rx="20.833334"
         sodipodi:ry="20.833334"
         d="m 238.33333,97.5 c 0,11.50593 -9.3274,20.83333 -20.83333,20.83333 -11.50593,0 -20.83333,-9.3274 -20.83333,-20.83333 0,-11.505933 9.3274,-20.833334 20.83333,-20.833334 11.50593,0 20.83333,9.327401 20.83333,20.833334 z" />
      <text
         xml:space="preserve"
         style="font-size:28px;font-style:normal;font-weight:normal;line-height:125%;letter-spacing:0px;word-spacing:0px;fill:#000000;fill-opacity:1;stroke:none;font-family:Sans"
         x="243.33333"
         y="146.66667"
         id="text3904"
         sodipodi:linespacing="125%"><tspan
           sodipodi:role="line"
           id="tspan3906"
           x="243.33333"
           y="146.66667">Sankmee</tspan></text>
    </g>
    <g
       transform="matrix(0.5,0,0,0.5,587.49998,302.69826)"
       id="g3908">
      <path
         d="m 238.33333,97.5 c 0,11.50593 -9.3274,20.83333 -20.83333,20.83333 -11.50593,0 -20.83333,-9.3274 -20.83333,-20.83333 0,-11.505933 9.3274,-20.833334 20.83333,-20.833334 11.50593,0 20.83333,9.327401 20.83333,20.833334 z"
         sodipodi:ry="20.833334"
         sodipodi:rx="20.833334"
         sodipodi:cy="97.5"
         sodipodi:cx="217.5"
         id="path3910"
         style="fill:none;stroke:#ff0000;stroke-width:10;stroke-miterlimit:4;stroke-dasharray:none"
         sodipodi:type="arc" />
      <text
         sodipodi:linespacing="125%"
         id="text3912"
         y="146.66667"
         x="243.33333"
         style="font-size:28px;font-style:normal;font-weight:normal;line-height:125%;letter-spacing:0px;word-spacing:0px;fill:#000000;fill-opacity:1;stroke:none;font-family:Sans"
         xml:space="preserve"><tspan
           y="146.66667"
           x="243.33333"
           id="tspan3914"
           sodipodi:role="line">Dalde-Dalde</tspan></text>
    </g>
    <g
       transform="matrix(0.5,0,0,0.5,-84.16668,316.03159)"
       id="g3916">
      <path
         d="m 238.33333,97.5 c 0,11.50593 -9.3274,20.83333 -20.83333,20.83333 -11.50593,0 -20.83333,-9.3274 -20.83333,-20.83333 0,-11.505933 9.3274,-20.833334 20.83333,-20.833334 11.50593,0 20.83333,9.327401 20.83333,20.833334 z"
         sodipodi:ry="20.833334"
         sodipodi:rx="20.833334"
         sodipodi:cy="97.5"
         sodipodi:cx="217.5"
         id="path3918"
         style="fill:none;stroke:#ff0000;stroke-width:10;stroke-miterlimit:4;stroke-dasharray:none"
         sodipodi:type="arc" />
      <text
         sodipodi:linespacing="125%"
         id="text3920"
         y="146.66667"
         x="243.33333"
         style="font-size:28px;font-style:normal;font-weight:normal;line-height:125%;letter-spacing:0px;word-spacing:0px;fill:#000000;fill-opacity:1;stroke:none;font-family:Sans"
         xml:space="preserve"><tspan
           y="146.66667"
           x="243.33333"
           id="tspan3922"
           sodipodi:role="line">Taros</tspan></text>
    </g>
    <g
       id="g3924"
       transform="matrix(0.5,0,0,0.5,365.83332,324.36492)">
      <path
         sodipodi:type="arc"
         style="fill:none;stroke:#ff0000;stroke-width:10;stroke-miterlimit:4;stroke-dasharray:none"
         id="path3926"
         sodipodi:cx="217.5"
         sodipodi:cy="97.5"
         sodipodi:rx="20.833334"
         sodipodi:ry="20.833334"
         d="m 238.33333,97.5 c 0,11.50593 -9.3274,20.83333 -20.83333,20.83333 -11.50593,0 -20.83333,-9.3274 -20.83333,-20.83333 0,-11.505933 9.3274,-20.833334 20.83333,-20.833334 11.50593,0 20.83333,9.327401 20.83333,20.833334 z" />
      <text
         xml:space="preserve"
         style="font-size:28px;font-style:normal;font-weight:normal;line-height:125%;letter-spacing:0px;word-spacing:0px;fill:#000000;fill-opacity:1;stroke:none;font-family:Sans"
         x="243.33333"
         y="146.66667"
         id="text3928"
         sodipodi:linespacing="125%"><tspan
           sodipodi:role="line"
           id="tspan3930"
           x="243.33333"
           y="146.66667">Fana</tspan></text>
    </g>
  </g>
</svg>
